<svg xmlns="http://www.w3.org/2000/svg" width="460" height="220" viewBox="0 0 460 220">
  <rect width="100%" height="100%" fill="#fff"/>
  <g transform="translate(20 10) scale(4 1)" fill="#000">
    <rect x="0" y="0" width="1" height="180"/>
    <rect x="2" y="0" width="1" height="180"/>
    <rect x="6" y="0" width="2" height="160"/>
    <rect x="9" y="0" width="1" height="160"/>
    <rect x="11" y="0" width="1" height="160"/>
    <rect x="14" y="0" width="3" height="160"/>
    <rect x="18" y="0" width="1" height="160"/>
    <rect x="20" y="0" width="4" height="160"/>
    <rect x="25" y="0" width="4" height="160"/>
    <rect x="30" y="0" width="1" height="160"/>
    <rect x="34" y="0" width="1" height="160"/>
    <rect x="37" y="0" width="1" height="160"/>
    <rect x="39" y="0" width="2" height="160"/>
    <rect x="43" y="0" width="2" height="160"/>
    <rect x="46" y="0" width="1" height="160"/>
    <rect x="48" y="0" width="1" height="160"/>
    <rect x="50" y="0" width="1" height="160"/>
    <rect x="55" y="0" width="1" height="160"/>
    <rect x="57" y="0" width="1" height="160"/>
    <rect x="62" y="0" width="1" height="160"/>
    <rect x="64" y="0" width="1" height="160"/>
    <rect x="69" y="0" width="1" height="160"/>
    <rect x="71" y="0" width="3" height="160"/>
    <rect x="75" y="0" width="1" height="160"/>
    <rect x="78" y="0" width="1" height="160"/>
    <rect x="83" y="0" width="1" height="160"/>
    <rect x="85" y="0" width="2" height="160"/>
    <rect x="89" y="0" width="2" height="160"/>
    <rect x="92" y="0" width="1" height="180"/>
    <rect x="94" y="0" width="1" height="180"/>
  </g>
  <text x="230" y="211" text-anchor="middle" font-family="monospace" font-size="16">4006381333931</text>
</svg>
